<?xml version="1.0" standalone="no"?>
<svg viewBox="0 0 200 200" xmlns="http://www.w3.org/2000/svg">
  <path fill="#DEEBF8" d="M45,-70.6C58.6,-70.1,70.1,-58.6,70.7,-45C71.3,-31.4,61.1,-15.7,60.3,-0.4C59.5,14.8,68.3,29.6,65.1,38.8C61.9,48,46.8,51.5,34,56.9C21.2,62.2,10.6,69.4,-0.5,70.2C-11.6,71.1,-23.2,65.6,-37,60.9C-50.8,56.1,-66.8,51.9,-76.6,41.9C-86.5,31.9,-90.1,15.9,-88.8,0.8C-87.5,-14.4,-81.2,-28.8,-70.1,-36.6C-58.9,-44.4,-42.9,-45.5,-30.5,-46.7C-18,-47.9,-9,-49,3.4,-54.9C15.7,-60.7,31.4,-71.1,45,-70.6Z" transform="translate(100 100)" />
</svg>
