<?xml version="1.0" standalone="no"?>
<svg viewBox="0 0 200 200" xmlns="http://www.w3.org/2000/svg">
  <path fill="#FFFAD1" d="M30.7,-51.1C43,-46.1,58.2,-44.3,62,-36.3C65.8,-28.3,58.2,-14.1,58.7,0.2C59.1,14.6,67.6,29.3,65.1,39.6C62.6,49.9,49.2,56,36.5,63.4C23.9,70.9,11.9,79.9,-0.7,81C-13.3,82.1,-26.5,75.5,-38.2,67.5C-49.9,59.4,-60,49.9,-69.2,38.5C-78.5,27,-86.9,13.5,-85.4,0.9C-83.9,-11.8,-72.5,-23.5,-61.8,-32.5C-51.1,-41.5,-41.1,-47.7,-31,-53.9C-20.8,-60,-10.4,-66,-0.6,-65C9.2,-64,18.5,-56,30.7,-51.1Z" transform="translate(100 100)" />
</svg>
